<?xml version="1.0" encoding="UTF-8"?><svg id="Arena" xmlns="http://www.w3.org/2000/svg" viewBox="0 0 48 48"><rect x="12" y="9" width="1" height="29"/><rect x="35" y="9" width="1" height="29"/><rect x="11" y="10" width="1" height="27"/><rect x="36" y="10" width="1" height="27"/><rect x="13" y="12" width="1" height="23"/><rect x="34" y="12" width="1" height="23"/><rect x="0" y="16" width="3" height="2"/><rect x="10" y="16" width="1" height="15"/><rect x="22" y="16" width="4" height="3"/><rect x="37" y="16" width="1" height="15"/><rect x="45" y="16" width="3" height="2"/><rect x="3" y="17" width="3" height="3"/><rect x="19" y="17" width="3" height="3"/><rect x="26" y="17" width="3" height="3"/><rect x="42" y="17" width="3" height="3"/><rect x="1" y="18" width="2" height="1"/><rect x="6" y="18" width="2" height="5"/><rect x="17" y="18" width="2" height="4"/><rect x="29" y="18" width="2" height="4"/><rect x="40" y="18" width="2" height="5"/><rect x="45" y="18" width="2" height="1"/><rect x="2" y="19" width="1" height="1"/><rect x="8" y="19" width="2" height="9"/><rect x="14" y="19" width="3" height="9"/><rect x="31" y="19" width="3" height="9"/><rect x="38" y="19" width="2" height="9"/><rect x="45" y="19" width="1" height="1"/><rect x="4" y="20" width="2" height="1"/><rect x="19" y="20" width="2" height="1"/><rect x="27" y="20" width="2" height="1"/><rect x="42" y="20" width="2" height="1"/><rect x="5" y="21" width="1" height="1"/><rect x="19" y="21" width="1" height="1"/><rect x="28" y="21" width="1" height="1"/><rect x="42" y="21" width="1" height="1"/><rect x="17" y="22" width="1" height="1"/><rect x="30" y="22" width="1" height="1"/><rect x="7" y="23" width="1" height="6"/><rect x="40" y="23" width="1" height="6"/><rect x="6" y="24" width="1" height="5"/><rect x="17" y="24" width="1" height="5"/><rect x="30" y="24" width="1" height="5"/><rect x="41" y="24" width="1" height="5"/><rect x="5" y="25" width="1" height="5"/><rect x="18" y="25" width="2" height="4"/><rect x="28" y="25" width="2" height="4"/><rect x="42" y="25" width="1" height="5"/><rect x="4" y="26" width="1" height="4"/><rect x="20" y="26" width="1" height="4"/><rect x="27" y="26" width="1" height="4"/><rect x="43" y="26" width="1" height="4"/><rect x="2" y="27" width="2" height="3"/><rect x="21" y="27" width="1" height="3"/><rect x="26" y="27" width="1" height="3"/><rect x="44" y="27" width="2" height="3"/><rect x="1" y="28" width="1" height="3"/><rect x="22" y="28" width="4" height="3"/><rect x="46" y="28" width="1" height="3"/><rect x="0" y="29" width="1" height="2"/><rect x="19" y="29" width="1" height="1"/><rect x="28" y="29" width="1" height="1"/><rect x="47" y="29" width="1" height="2"/><rect x="2" y="30" width="1" height="1"/><rect x="45" y="30" width="1" height="1"/></svg>